<?xml version="1.0" encoding="utf-8"?>
<!-- Generator: Adobe Illustrator 23.0.0, SVG Export Plug-In . SVG Version: 6.00 Build 0)  -->
<svg version="1.1" id="图层_1" xmlns="http://www.w3.org/2000/svg" xmlns:xlink="http://www.w3.org/1999/xlink" x="0px" y="0px"
	 viewBox="0 0 200 200" enable-background="new 0 0 200 200" xml:space="preserve">
<path d="M58.18,165.45c0,12.73-10.45,23.19-23.18,23.19s-23.18-10.46-23.18-23.19c0-12.72,10.45-23.18,23.18-23.18
	S57.73,152.27,58.18,165.45z"/>
<path d="M188.18,143.64c0,12.72-10.45,23.18-23.18,23.18s-23.18-10.46-23.18-23.18c0-12.73,10.45-23.19,23.18-23.19
	S188.18,130.91,188.18,143.64z"/>
<path d="M187.73,0.45h-0.91L70,14.09c-6.36,0-11.82,5.46-11.82,12.27v112.28l-1.82-1.37C50,132.73,42.73,130,35,130
	c-19.55,0-35,15.45-35,35s15.91,35,35,35s34.55-15.45,35-35V68.64l118.18-12.73v60.91l-1.82-1.37c-5.91-4.54-13.63-7.27-21.36-7.27
	c-19.55,0-35,15.91-35,35c0,19.55,15.91,35,35,35c9.09,0,18.18-3.63,24.55-10c6.81-6.36,10.45-15,10.45-24.54V12.27
	C200,5.45,194.09,0,187.73,0.45z M35,188.64c-12.73,0-23.18-10.46-23.18-23.19c0-12.72,10.45-23.18,23.18-23.18
	s22.73,10,23.18,23.18C58.18,178.18,47.73,188.64,35,188.64z M187.73,44.09L69.55,56.82V25.45h1.36l116.82-13.63L187.73,44.09
	L187.73,44.09z M165,166.82c-12.73,0-23.18-10.46-23.18-23.18c0-12.73,10.45-23.19,23.18-23.19s23.18,10.46,23.18,23.19
	C188.18,156.36,177.73,166.82,165,166.82z M187.73,11.82v32.27L69.55,56.82V25.45h1.36L187.73,11.82z"/>
</svg>
