<?xml version="1.0" encoding="utf-8"?>
<!-- Generator: Adobe Illustrator 23.0.0, SVG Export Plug-In . SVG Version: 6.00 Build 0)  -->
<svg version="1.1" id="图层_1" xmlns="http://www.w3.org/2000/svg" xmlns:xlink="http://www.w3.org/1999/xlink" x="0px" y="0px"
	 viewBox="0 0 200 200" style="enable-background:new 0 0 200 200;" xml:space="preserve">
<path style="fill:#888888;" d="M47.75,63.83H18.36c-7.68,0-13.91,6.24-13.91,13.91v107.56c0,7.68,6.24,13.91,13.91,13.91h29.39
	c7.66,0,13.91-6.24,13.91-13.91V77.74C61.66,70.07,55.43,63.83,47.75,63.83z M49.02,185.31c0,0.7-0.57,1.26-1.26,1.26H18.36
	c-0.7,0-1.26-0.57-1.26-1.26V77.74c0-0.7,0.57-1.26,1.26-1.26h29.39c0.7,0,1.26,0.57,1.26,1.26V185.31z M117.46,0H84.45
	c-7.68,0-13.91,6.24-13.91,13.91v171.4c0,7.68,6.24,13.91,13.91,13.91h33.01c7.66,0,13.91-6.24,13.91-13.9V13.91
	C131.38,6.24,125.14,0,117.46,0z M118.73,185.32c0,0.7-0.57,1.26-1.26,1.26H84.45c-0.7,0-1.26-0.57-1.26-1.26V13.91
	c0-0.7,0.57-1.26,1.26-1.26h33.01c0.7,0,1.26,0.57,1.26,1.26V185.32z M181.75,117.73h-25.78c-7.68,0-13.91,6.24-13.91,13.91v53.66
	c0,7.68,6.24,13.91,13.91,13.91h25.78c7.68,0,13.91-6.24,13.91-13.91v-53.66C195.66,123.97,189.43,117.73,181.75,117.73z
	 M183.01,185.31c0,0.7-0.57,1.26-1.26,1.26h-25.78c-0.7,0-1.26-0.57-1.26-1.26v-53.66c0-0.7,0.57-1.26,1.26-1.26h25.78
	c0.7,0,1.26,0.57,1.26,1.26V185.31z M183.01,131.65v53.66c0,0.7-0.57,1.26-1.26,1.26h-25.78c-0.7,0-1.26-0.57-1.26-1.26v-53.66
	c0-0.7,0.57-1.26,1.26-1.26h25.78C182.45,130.38,183.01,130.95,183.01,131.65z M49.02,77.74v107.56c0,0.7-0.57,1.26-1.26,1.26H18.36
	c-0.7,0-1.26-0.57-1.26-1.26V77.74c0-0.7,0.57-1.26,1.26-1.26h29.39C48.45,76.48,49.02,77.05,49.02,77.74z M118.73,13.91v171.41
	c0,0.7-0.57,1.26-1.26,1.26H84.45c-0.7,0-1.26-0.57-1.26-1.26V13.91c0-0.7,0.57-1.26,1.26-1.26h33.01
	C118.16,12.65,118.73,13.22,118.73,13.91z"/>
</svg>
