<?xml version="1.0" encoding="utf-8"?>
<!-- Generator: Adobe Illustrator 23.0.0, SVG Export Plug-In . SVG Version: 6.00 Build 0)  -->
<svg version="1.1" id="图层_1" xmlns="http://www.w3.org/2000/svg" xmlns:xlink="http://www.w3.org/1999/xlink" x="0px" y="0px"
	 viewBox="0 0 200 200" style="enable-background:new 0 0 200 200;" xml:space="preserve">
<path style="fill:#888888;" d="M48.1,198.55H18.91c-7.63,0-13.82-6.19-13.82-13.82V77.89c0-7.63,6.19-13.82,13.82-13.82H48.1
	c7.63,0,13.82,6.19,13.82,13.82v106.84C61.92,192.36,55.72,198.55,48.1,198.55z M18.91,76.63c-0.69,0-1.26,0.57-1.26,1.26v106.84
	c0,0.69,0.57,1.26,1.26,1.26H48.1c0.69,0,1.26-0.57,1.26-1.26V77.89c0-0.69-0.57-1.26-1.26-1.26H18.91z M117.35,198.55H84.56
	c-7.63,0-13.82-6.19-13.82-13.82V14.49c0-7.63,6.19-13.82,13.82-13.82h32.79c7.63,0,13.82,6.19,13.82,13.82v170.25
	C131.16,192.36,124.96,198.55,117.35,198.55z M84.56,13.23c-0.69,0-1.26,0.57-1.26,1.26v170.25c0,0.69,0.57,1.26,1.26,1.26h32.79
	c0.69,0,1.26-0.57,1.26-1.26V14.49c0-0.69-0.57-1.26-1.26-1.26H84.56z M181.2,198.55h-25.6c-7.63,0-13.82-6.19-13.82-13.82v-53.3
	c0-7.63,6.19-13.82,13.82-13.82h25.6c7.63,0,13.82,6.19,13.82,13.82v53.3C195.02,192.36,188.82,198.55,181.2,198.55z M155.6,130.17
	c-0.69,0-1.26,0.57-1.26,1.26v53.3c0,0.69,0.57,1.26,1.26,1.26h25.6c0.69,0,1.26-0.57,1.26-1.26v-53.3c0-0.69-0.57-1.26-1.26-1.26
	C181.2,130.17,155.6,130.17,155.6,130.17z"/>
</svg>
