<?xml version="1.0" encoding="utf-8"?>
<!-- Generator: Adobe Illustrator 23.0.0, SVG Export Plug-In . SVG Version: 6.00 Build 0)  -->
<svg version="1.1" id="图层_1" xmlns="http://www.w3.org/2000/svg" xmlns:xlink="http://www.w3.org/1999/xlink" x="0px" y="0px"
	 viewBox="0 0 200 200" style="enable-background:new 0 0 200 200;" xml:space="preserve">
<path d="M171.4,14.4C162.1,5.1,149.8,0,136.7,0c-13.1,0-25.4,5.1-34.7,14.4C91.6,24.8,86.5,39.1,87.8,53.5L8.1,147.7
	c-2,2-3.1,4.7-3.1,7.5c0,2.8,1.1,5.5,3.1,7.5l4.9,4.9l-2.4,2.4c-6.8,6.8-6.8,18,0,24.8c3.4,3.4,7.9,5.1,12.4,5.1
	c4.5,0,9-1.7,12.4-5.1l-5.1-5.1c-4,4-10.6,4-14.7,0c-4.1-4.1-4.1-10.7,0-14.7l2.4-2.4l4.9,4.9c2,2,4.7,3.1,7.5,3.1
	c2.9,0,5.5-1.1,7.1-2.7l94.7-80.1c1.5,0.1,3,0.2,4.5,0.2c13.1,0,25.4-5.1,34.7-14.4C190.5,64.6,190.5,33.5,171.4,14.4z M30.7,165.2
	l-10.1-10.1l8.9-10.5l11.7,11.7L30.7,165.2z M46.7,151.6l-12.5-12.5l61-72.1l11.4,11.4l12.2,12.2L46.7,151.6z M161.3,73.7
	c-7.7,7.7-18.8,11.3-29.6,9.8L102.3,54c-1.6-10.8,2-21.8,9.8-29.6c6.6-6.6,15.3-10.2,24.6-10.2c9.3,0,18,3.6,24.6,10.2
	C174.8,38,174.8,60.1,161.3,73.7z"/>
</svg>
