<?xml version="1.0" encoding="utf-8"?>
<!-- Generator: Adobe Illustrator 23.0.0, SVG Export Plug-In . SVG Version: 6.00 Build 0)  -->
<svg version="1.1" id="图层_1" xmlns="http://www.w3.org/2000/svg" xmlns:xlink="http://www.w3.org/1999/xlink" x="0px" y="0px"
	 viewBox="0 0 200 200" style="enable-background:new 0 0 200 200;" xml:space="preserve">
<style type="text/css">
	.st0{fill:#FF3939;}
</style>
<path d="M176,14.4C166.8,5.1,154.4,0,141.3,0c-13.1,0-25.4,5.1-34.7,14.4C96.3,24.8,91.2,39.1,92.5,53.5l-79.7,94.2
	c-2,2-3.1,4.7-3.1,7.5c0,2.8,1.1,5.5,3.1,7.5l4.9,4.9l-2.4,2.4c-6.8,6.8-6.8,18,0,24.8c3.4,3.4,7.9,5.1,12.4,5.1
	c4.5,0,9-1.7,12.4-5.1l-5.1-5c-4,4-10.6,4-14.7,0c-4.1-4.1-4.1-10.7,0-14.7l2.4-2.4l4.9,4.9c2,2,4.7,3.1,7.5,3.1
	c2.9,0,5.5-1.1,7.1-2.7l94.7-80.1c1.5,0.1,3,0.2,4.5,0.2c13.1,0,25.4-5.1,34.7-14.4C195.1,64.6,195.1,33.5,176,14.4z M51.3,151.6
	l-12.5-12.5l61-72.1l23.6,23.6L51.3,151.6z"/>
</svg>
