<?xml version="1.0" encoding="utf-8"?>
<!-- Generator: Adobe Illustrator 23.0.0, SVG Export Plug-In . SVG Version: 6.00 Build 0)  -->
<svg version="1.1" id="图层_1" xmlns="http://www.w3.org/2000/svg" xmlns:xlink="http://www.w3.org/1999/xlink" x="0px" y="0px"
	 viewBox="0 0 200 200" style="enable-background:new 0 0 200 200;" xml:space="preserve">
<path d="M194.25,164.83l-53.89-52.76c1.5-2.56,2.84-5.21,4.02-7.94c3.91-9.06,5.9-18.7,5.9-28.61s-1.99-19.53-5.9-28.61
	c-3.78-8.75-9.19-16.6-16.09-23.36c-6.91-6.76-14.93-12.05-23.87-15.75c-9.25-3.83-19.11-5.77-29.23-5.77S55.23,3.97,45.95,7.8
	c-8.94,3.7-16.96,8.99-23.87,15.75S9.76,38.16,5.99,46.91c-3.91,9.08-5.9,18.7-5.9,28.61s1.99,19.53,5.9,28.61
	c3.78,8.75,9.19,16.6,16.09,23.36c6.91,6.76,14.93,12.05,23.87,15.75c9.28,3.83,19.11,5.77,29.23,5.77s19.96-1.95,29.23-5.77
	c2.79-1.16,5.5-2.47,8.11-3.94l53.91,52.76c7.64,7.48,20.16,7.48,27.83,0C201.91,184.56,201.91,172.31,194.25,164.83z M75.18,131.52
	c-31.56,0-57.22-25.11-57.22-55.99s25.66-55.99,57.22-55.99s57.22,25.11,57.22,55.99S106.74,131.52,75.18,131.52z"/>
</svg>
