<?xml version="1.0" encoding="utf-8"?>
<!-- Generator: Adobe Illustrator 23.0.0, SVG Export Plug-In . SVG Version: 6.00 Build 0)  -->
<svg version="1.1" id="图层_1" xmlns="http://www.w3.org/2000/svg" xmlns:xlink="http://www.w3.org/1999/xlink" x="0px" y="0px"
	 viewBox="0 0 200 200" style="enable-background:new 0 0 200 200;" xml:space="preserve">
<path d="M194.25,164.83l-53.89-52.76c1.5-2.56,2.84-5.21,4.02-7.94c3.91-9.05,5.9-18.7,5.9-28.61c0-9.91-1.99-19.53-5.9-28.61
	c-3.77-8.75-9.18-16.6-16.09-23.36c-6.91-6.76-14.93-12.05-23.87-15.75c-9.25-3.83-19.11-5.77-29.24-5.77
	c-10.12,0-19.95,1.94-29.23,5.77c-8.94,3.7-16.96,8.99-23.87,15.75C15.17,30.31,9.76,38.16,5.99,46.91
	c-3.92,9.08-5.9,18.7-5.9,28.61c0,9.91,1.98,19.53,5.9,28.61c3.77,8.75,9.18,16.6,16.09,23.36c6.91,6.76,14.93,12.05,23.87,15.75
	c9.28,3.83,19.11,5.77,29.23,5.77c10.13,0,19.96-1.94,29.24-5.77c2.79-1.16,5.5-2.47,8.11-3.94l53.91,52.76
	c7.65,7.48,20.16,7.48,27.83,0C201.91,184.56,201.91,172.31,194.25,164.83z M75.18,131.52c-31.56,0-57.21-25.11-57.21-56
	c0-30.88,25.65-55.99,57.21-55.99s57.22,25.11,57.22,55.99C132.4,106.41,106.74,131.52,75.18,131.52z M132.4,75.52
	c0,30.89-25.66,56-57.22,56s-57.21-25.11-57.21-56c0-30.88,25.65-55.99,57.21-55.99S132.4,44.64,132.4,75.52z"/>
</svg>
