<?xml version="1.0" encoding="utf-8"?>
<!-- Generator: Adobe Illustrator 23.0.0, SVG Export Plug-In . SVG Version: 6.00 Build 0)  -->
<svg version="1.1" id="图层_1" xmlns="http://www.w3.org/2000/svg" xmlns:xlink="http://www.w3.org/1999/xlink" x="0px" y="0px"
	 viewBox="0 0 200 200" style="enable-background:new 0 0 200 200;" xml:space="preserve">
<path style="fill:#848484;" d="M107.32,99.69c22.64-2.5,40.96-20.83,43.46-43.47c3.28-29.8-19.94-54.99-49.08-54.99
	c-27.27,0-49.38,22.09-49.38,49.37v0.02C52.32,79.77,77.52,102.97,107.32,99.69L107.32,99.69z M100.01,113.62
	c-32.97,0-98.78,19.01-98.78,56.77v21.29c0,3.93,3.17,7.09,7.05,7.09h183.44c3.9-0.01,7.06-3.18,7.05-7.08l0,0V170.4
	C198.79,132.66,132.98,113.62,100.01,113.62z"/>
</svg>
