<?xml version="1.0" encoding="utf-8"?>
<!-- Generator: Adobe Illustrator 23.0.0, SVG Export Plug-In . SVG Version: 6.00 Build 0)  -->
<svg version="1.1" id="图层_1" xmlns="http://www.w3.org/2000/svg" xmlns:xlink="http://www.w3.org/1999/xlink" x="0px" y="0px"
	 viewBox="0 0 200 200" style="enable-background:new 0 0 200 200;" xml:space="preserve">
<path style="fill:none;" d="M101.7,14.23c10.34,0,20.22,4.42,27.12,12.11c6.99,7.8,10.2,17.9,9.03,28.45
	c-1.84,16.69-15.29,30.13-31.96,31.97c-1.4,0.15-2.81,0.23-4.2,0.23c-20.06,0-36.38-16.32-36.38-36.4
	C65.32,30.55,81.64,14.23,101.7,14.23 M100.01,126.62c13.94,0,36.75,4.03,56.31,13.04c11,5.07,29.46,15.8,29.45,30.73v15.37H14.23
	V170.4c0-14.94,18.46-25.67,29.46-30.74C63.25,130.65,86.07,126.62,100.01,126.62 M101.7,1.23c-27.27,0-49.38,22.09-49.38,49.37
	v0.02c0,27.29,22.1,49.38,49.38,49.38c1.85,0,3.73-0.1,5.62-0.31c22.64-2.5,40.96-20.83,43.46-43.47
	C154.06,26.42,130.83,1.23,101.7,1.23L101.7,1.23z M100.01,113.62c-32.97,0-98.78,19.01-98.78,56.77v21.29
	c0,3.93,3.17,7.09,7.05,7.09h183.44c3.9-0.01,7.06-3.18,7.05-7.08l0,0V170.4C198.79,132.66,132.98,113.62,100.01,113.62
	L100.01,113.62z"/>
</svg>
