<?xml version="1.0" encoding="utf-8"?>
<!-- Generator: Adobe Illustrator 23.0.0, SVG Export Plug-In . SVG Version: 6.00 Build 0)  -->
<svg version="1.1" id="图层_1" xmlns="http://www.w3.org/2000/svg" xmlns:xlink="http://www.w3.org/1999/xlink" x="0px" y="0px"
	 viewBox="0 0 200.1 200.2" style="enable-background:new 0 0 200.1 200.2;" xml:space="preserve">
<path d="M100.1,11c34.1,0.5,56.7,6.9,69.1,19.7l0.1,0.1l0.1,0.1c12.8,12.4,19.2,35.1,19.7,69.1c-0.5,34.1-6.9,56.7-19.7,69.1
	l-0.1,0.1l-0.1,0.1c-12.4,12.8-35.1,19.2-69.1,19.7c-34.1-0.5-56.7-6.9-69.1-19.7l-0.1-0.1l-0.1-0.1c-12.8-12.4-19.2-35.1-19.7-69.1
	c0.5-34.1,6.9-56.7,19.7-69.1l0.1-0.1l0.1-0.1C43.4,17.9,66,11.5,100.1,11 M77.3,151.9c3.6,0,7.3-0.9,10.5-2.7l54.4-30.3
	c6.8-3.8,11.1-11,11.1-18.8c0-7.8-4.2-15-11.1-18.8L87.8,51c-3.2-1.8-6.8-2.7-10.5-2.7c-11.9,0-21.5,9.7-21.5,21.6v60.5
	C55.8,142.2,65.4,151.9,77.3,151.9 M100.1,0c-33.2,0.5-60.6,6.2-77,23.1C6.2,39.4,0.5,66.9,0,100.1c0.5,33.2,6.2,60.6,23.1,77
	c16.4,16.8,43.8,22.6,77,23.1c33.2-0.5,60.6-6.2,77-23.1c16.8-16.4,22.6-43.8,23.1-77c-0.5-33.2-6.2-60.6-23.1-77
	C160.7,6.2,133.2,0.5,100.1,0L100.1,0z M77.3,140.9c-5.5,0-10.6-4.4-10.6-10.6V69.8c0-6.1,5-10.6,10.6-10.6c1.7,0,3.5,0.4,5.1,1.3
	l54.4,30.3c7.2,4,7.2,14.4,0,18.4l-54.4,30.3C80.8,140.5,79,140.9,77.3,140.9L77.3,140.9z"/>
</svg>
