<?xml version="1.0" encoding="utf-8"?>
<!-- Generator: Adobe Illustrator 23.0.0, SVG Export Plug-In . SVG Version: 6.00 Build 0)  -->
<svg version="1.1" id="图层_1" xmlns="http://www.w3.org/2000/svg" xmlns:xlink="http://www.w3.org/1999/xlink" x="0px" y="0px"
	 viewBox="0 0 174.7 174.7" style="enable-background:new 0 0 174.7 174.7;" xml:space="preserve">
<style type="text/css">
	.st0{fill:#FFFFFF;}
</style>
<path d="M0,87.4c0.4-29,5.4-52.9,20.1-67.2C34.4,5.4,58.4,0.4,87.4,0c29,0.4,52.9,5.4,67.2,20.1c14.7,14.3,19.7,38.3,20.1,67.2
	c-0.4,29-5.4,52.9-20.1,67.2c-14.3,14.7-38.3,19.7-67.2,20.1c-29-0.4-52.9-5.4-67.2-20.1C5.4,140.3,0.4,116.3,0,87.4z"/>
<path class="st0" d="M119.4,79.3L72,52.9c-6.1-3.4-13.7,1-13.7,8v52.8c0,7,7.5,11.5,13.7,8l47.5-26.4
	C125.7,91.9,125.7,82.8,119.4,79.3z"/>
</svg>
