<?xml version="1.0" encoding="utf-8"?>
<!-- Generator: Adobe Illustrator 23.0.0, SVG Export Plug-In . SVG Version: 6.00 Build 0)  -->
<svg version="1.1" id="图层_1" xmlns="http://www.w3.org/2000/svg" xmlns:xlink="http://www.w3.org/1999/xlink" x="0px" y="0px"
	 viewBox="0 0 200.1 200.2" style="enable-background:new 0 0 200.1 200.2;" xml:space="preserve">
<path d="M177.1,23.1C160.7,6.2,133.2,0.5,100.1,0c-33.2,0.5-60.6,6.2-77,23.1C6.2,39.4,0.4,66.9,0,100.1c0.4,33.2,6.2,60.6,23.1,77
	c16.4,16.8,43.8,22.6,77,23.1c33.2-0.5,60.6-6.2,77-23.1c16.8-16.4,22.6-43.8,23.1-77C199.7,66.9,193.9,39.4,177.1,23.1z
	 M136.8,109.3l-54.4,30.3c-7,3.9-15.7-1.2-15.7-9.2V69.8c0-8,8.6-13.1,15.7-9.2l54.4,30.3C144,94.9,144,105.3,136.8,109.3z"/>
</svg>
